<?xml version="1.0" standalone="no"?>
<!DOCTYPE svg PUBLIC "-//W3C//DTD SVG 20010904//EN"
 "http://www.w3.org/TR/2001/REC-SVG-20010904/DTD/svg10.dtd">
<svg version="1.0" xmlns="http://www.w3.org/2000/svg"
 width="540.000000pt" height="540.000000pt" viewBox="0 0 540.000000 540.000000"
 preserveAspectRatio="xMidYMid meet">
<metadata>
Created by potrace 1.14, written by Peter Selinger 2001-2017
</metadata>
<g transform="translate(0.000000,540.000000) scale(0.100000,-0.100000)"
fill="#000000" stroke="none">
<path d="M2499 5386 c-2 -2 -35 -7 -74 -11 -103 -10 -225 -29 -312 -50 -13 -3
-31 -7 -41 -9 -176 -40 -353 -104 -557 -202 -368 -176 -683 -432 -947 -769
-272 -346 -480 -823 -534 -1224 -3 -25 -8 -55 -10 -66 -11 -58 -19 -185 -19
-305 0 -120 3 -140 22 -180 40 -80 103 -137 183 -165 35 -12 146 -15 688 -15
356 0 658 2 672 5 45 9 126 55 158 89 58 64 80 125 87 237 9 153 33 248 95
370 113 224 302 382 547 455 73 22 112 27 223 30 116 2 148 -1 230 -22 157
-40 277 -105 399 -218 91 -83 157 -110 253 -103 197 13 331 192 284 377 -25
98 -58 139 -212 262 -210 168 -494 287 -749 315 -103 11 -330 8 -405 -5 -36
-7 -78 -14 -95 -17 -151 -27 -414 -143 -557 -247 -283 -205 -473 -473 -573
-808 l-31 -104 -283 -1 c-156 0 -287 2 -291 5 -7 5 -2 46 15 120 3 14 8 36 11
50 22 112 100 320 175 467 130 255 358 527 574 688 22 17 48 37 58 46 36 33
278 171 365 209 227 98 405 145 669 175 46 6 303 6 358 0 125 -12 171 -19 275
-42 376 -82 695 -253 991 -530 44 -41 100 -83 123 -94 153 -67 328 -2 408 151
19 38 23 60 23 135 -1 125 -22 163 -165 291 -363 326 -744 530 -1190 637 -106
26 -121 29 -240 47 -36 5 -83 12 -105 15 -43 7 -490 16 -496 11z"/>
<path d="M3842 2998 c-82 -14 -168 -74 -214 -148 -27 -44 -39 -96 -43 -184
-13 -252 -141 -509 -326 -654 -172 -135 -369 -201 -584 -196 -89 1 -204 21
-260 43 -142 57 -234 113 -325 197 -77 72 -151 105 -232 105 -282 0 -418 -332
-219 -529 90 -89 227 -191 346 -257 97 -54 286 -123 385 -142 14 -2 43 -8 65
-13 93 -21 291 -30 395 -18 114 13 140 17 223 37 490 117 903 491 1068 967 16
47 34 107 40 133 l10 48 292 -2 c161 -1 293 -2 293 -3 2 -2 -18 -103 -30 -159
-29 -136 -94 -310 -173 -466 -284 -558 -812 -963 -1424 -1092 -230 -49 -548
-55 -779 -16 -408 70 -785 260 -1095 555 -97 92 -138 110 -245 111 -102 0
-152 -20 -223 -92 -81 -81 -107 -197 -70 -314 14 -45 32 -69 107 -144 111
-110 133 -129 268 -230 392 -295 889 -483 1383 -522 163 -13 463 -7 565 11 14
3 43 7 65 10 87 12 263 50 340 73 72 22 167 53 190 62 11 5 52 21 90 36 119
48 345 167 460 244 406 270 748 661 947 1082 50 105 78 168 78 175 0 3 6 20
14 37 26 58 80 230 92 290 2 10 6 27 9 37 3 10 7 27 9 37 48 247 63 374 62
540 -1 119 -3 132 -28 181 -40 77 -97 128 -180 158 -38 14 -123 16 -675 18
-347 0 -649 -2 -671 -6z"/>
</g>
</svg>
